<?xml version="1.0" standalone="no"?>
<!DOCTYPE svg PUBLIC "-//W3C//DTD SVG 20010904//EN"
 "http://www.w3.org/TR/2001/REC-SVG-20010904/DTD/svg10.dtd">
<svg version="1.0" xmlns="http://www.w3.org/2000/svg"
 width="102.000000pt" height="102.000000pt" viewBox="0 0 102.000000 102.000000"
 preserveAspectRatio="xMidYMid meet">
<metadata>
Created by potrace 1.11, written by Peter Selinger 2001-2013
</metadata>
<g transform="translate(0.000000,102.000000) scale(0.100000,-0.100000)"
fill="#000000" stroke="none">
<path d="M490 1005 c0 -8 -7 -15 -16 -15 -8 0 -13 -4 -10 -9 3 -4 -6 -21 -19
-37 -14 -16 -25 -37 -25 -46 0 -10 -5 -18 -11 -18 -16 0 -39 -27 -39 -46 0 -9
-11 -27 -25 -40 -14 -13 -25 -30 -25 -39 0 -8 -4 -15 -10 -15 -5 0 -10 -7 -10
-16 0 -8 -5 -12 -10 -9 -6 4 -10 3 -9 -2 4 -22 -2 -43 -12 -43 -14 0 -38 -30
-39 -48 0 -7 -7 -20 -15 -29 -8 -8 -13 -19 -10 -24 4 -5 -1 -6 -9 -3 -11 4
-16 0 -16 -15 0 -12 -4 -21 -10 -21 -5 0 -10 -9 -10 -20 0 -11 5 -20 10 -20 6
0 10 -6 10 -14 0 -8 7 -16 15 -20 8 -3 15 -12 15 -21 0 -8 4 -15 8 -15 5 0 14
-16 22 -35 8 -19 19 -35 25 -35 6 0 17 -16 25 -35 8 -19 17 -35 22 -35 4 0 8
-7 8 -15 0 -8 7 -15 15 -15 8 0 15 -7 15 -16 0 -9 9 -25 20 -34 12 -10 20 -22
19 -26 -3 -20 2 -34 12 -34 11 0 39 -25 39 -35 0 -3 -5 -3 -11 0 -6 4 -5 -2 3
-14 7 -12 16 -21 20 -21 5 0 8 -7 8 -15 0 -9 6 -12 15 -9 11 5 15 -1 15 -20 0
-14 3 -26 6 -26 11 0 31 26 39 49 6 18 9 21 16 10 7 -11 9 -9 9 8 0 12 5 23
10 25 6 2 12 13 13 25 0 12 5 19 9 17 4 -3 8 2 8 10 0 9 7 16 15 16 8 0 15 9
15 20 0 11 5 20 10 20 6 0 10 7 10 15 0 8 5 15 10 15 6 0 10 9 10 20 0 11 5
20 11 20 5 0 7 -5 3 -12 -4 -7 -3 -8 5 -4 6 4 9 11 6 15 -2 5 4 19 16 32 11
12 17 29 14 36 -2 8 0 11 5 8 6 -3 10 1 10 9 0 9 5 16 11 16 6 0 17 6 25 14
11 11 11 16 1 19 -9 4 -9 6 1 6 6 1 12 5 12 11 0 17 33 49 44 43 6 -4 4 2 -4
12 -10 12 -10 16 -2 11 10 -6 12 1 10 27 -1 26 -6 33 -17 29 -9 -3 -12 -1 -8
5 4 6 1 17 -6 25 -7 7 -20 28 -28 46 -7 17 -19 32 -25 32 -15 0 -26 28 -17 42
3 7 1 8 -5 4 -7 -4 -12 -2 -12 3 0 6 -8 20 -17 31 -13 15 -20 17 -32 8 -13
-10 -14 -10 -4 1 14 16 6 40 -19 62 -10 9 -18 26 -18 38 0 12 -6 21 -15 21
-14 0 -20 12 -16 33 1 5 -3 6 -9 2 -5 -3 -10 3 -10 14 0 12 -4 21 -9 21 -5 0
-13 10 -16 21 -6 17 -9 19 -16 8 -6 -10 -9 -8 -9 9 0 21 -20 52 -34 52 -3 0
-6 -7 -6 -15z m40 -92 c0 -7 7 -13 15 -13 8 0 15 -9 15 -21 0 -11 5 -17 10
-14 6 3 10 -3 10 -14 0 -12 4 -21 9 -21 5 0 11 -9 14 -21 3 -12 10 -18 16 -14
7 3 11 -2 11 -14 0 -12 5 -21 10 -21 6 0 10 -7 10 -16 0 -18 23 -44 39 -44 6
0 11 -8 11 -18 0 -10 9 -28 20 -40 11 -12 20 -28 20 -36 0 -8 5 -18 12 -22 7
-5 8 -3 3 6 -5 9 -4 11 3 6 7 -4 12 -14 12 -22 0 -8 5 -14 10 -14 6 0 10 -10
10 -23 0 -13 6 -29 13 -36 10 -11 10 -13 0 -7 -8 5 -13 1 -13 -9 0 -9 -7 -23
-15 -32 -8 -8 -12 -20 -8 -26 4 -7 -2 -5 -12 3 -11 9 -16 10 -11 3 12 -22 -18
-15 -34 7 -8 11 -25 20 -37 20 -22 0 -23 4 -23 70 0 40 -4 70 -10 70 -5 0 -10
7 -10 15 0 8 -9 15 -19 15 -19 0 -38 33 -32 54 4 16 -21 56 -36 56 -8 0 -13
12 -13 31 0 33 -30 74 -38 51 -2 -6 -10 -12 -18 -12 -9 0 -14 -11 -14 -35 0
-33 10 -42 43 -36 5 1 6 -3 2 -9 -3 -5 -19 -10 -35 -10 -51 0 -48 -46 4 -52
18 -2 30 -9 32 -20 1 -10 -1 -17 -4 -17 -30 4 -42 -3 -42 -27 0 -21 4 -25 20
-21 11 3 23 0 27 -5 4 -7 1 -8 -7 -3 -10 6 -12 4 -7 -7 4 -12 1 -14 -14 -11
-11 3 -19 0 -19 -6 0 -7 4 -10 9 -6 5 3 13 0 17 -6 4 -8 3 -9 -5 -5 -16 10
-26 -23 -11 -37 10 -9 11 -9 6 1 -4 6 -2 12 3 12 6 0 11 -14 11 -31 0 -19 -4
-28 -11 -24 -6 4 -13 -2 -16 -14 -8 -33 -29 -24 -25 10 1 4 -10 2 -23 -5 -14
-6 -25 -14 -25 -18 0 -5 -30 -8 -66 -8 -70 0 -94 12 -94 50 0 12 -4 18 -10 15
-6 -4 -10 9 -10 32 0 28 3 34 10 23 8 -12 10 -10 10 10 0 15 10 33 25 44 14
10 25 25 25 32 0 8 8 23 18 34 9 11 18 25 18 30 1 6 2 15 3 20 0 6 6 10 12 10
6 0 17 7 25 15 12 12 12 15 2 16 -10 0 -10 2 0 6 6 2 12 10 12 16 0 7 11 21
25 31 14 10 25 27 25 37 0 11 5 19 10 19 6 0 10 7 10 16 0 8 5 12 10 9 6 -4
10 -3 9 2 -4 24 3 43 15 43 8 0 17 7 20 17 6 14 8 14 21 -3 8 -10 15 -25 15
-31z m0 -212 c0 -11 -4 -22 -9 -25 -11 -7 -20 14 -13 32 7 19 22 14 22 -7z"/>
<path d="M370 607 c0 -13 -6 -29 -12 -36 -11 -11 -10 -13 5 -8 9 4 17 2 17 -3
0 -6 -6 -10 -13 -10 -16 0 -20 -37 -5 -46 7 -5 9 -1 5 9 -4 11 -1 17 8 17 8 0
15 -9 15 -20 0 -15 7 -20 25 -20 18 0 25 5 25 20 0 15 -7 20 -25 20 -16 0 -25
6 -25 16 0 10 6 14 15 10 9 -3 19 3 26 15 13 24 4 38 -13 21 -19 -19 -28 -14
-28 13 0 14 -4 25 -10 25 -5 0 -10 -10 -10 -23z"/>
<path d="M300 443 c0 -13 3 -14 11 -6 6 6 18 9 25 6 8 -3 14 0 14 6 0 6 -11
11 -25 11 -17 0 -25 -6 -25 -17z"/>
</g>
</svg>
